<svg xmlns="http://www.w3.org/2000/svg" width="116" height="128" viewBox="0 0 116 128" fill="none">
  <path d="M52 4.6c3.7-2.1 8.3-2.1 12 0l44.5 25.7c3.7 2.1 6 6.1 6 10.4v51.4c0 4.3-2.3 8.3-6 10.4L64 138H64l-44.5-25.7c-3.7-2.1-6-6.1-6-10.4V40.7c0-4.3 2.3-8.3 6-10.4L52 4.6Z" transform="translate(0,-5)" fill="#FFEE9E" stroke="#16130A" stroke-width="6.5" stroke-linejoin="round"></path>
  <g transform="translate(-21.6,-15.2) scale(0.0865)">
    <path d="M813.585 640.734C841.643 624.534 877.521 634.148 893.721 662.206C897.27 668.354 900.834 681.637 903.775 700.482C906.606 718.621 908.583 739.855 909.952 760.274C911.244 779.549 911.978 797.889 912.396 811.879C900.49 804.522 884.975 794.715 868.928 783.959C851.929 772.564 834.527 760.236 820.234 748.715C805.385 736.745 795.663 727.017 792.113 720.869C775.914 692.811 785.528 656.933 813.585 640.734Z" fill="#856E00" stroke="black" stroke-width="28.4072"></path>
    <path d="M1039.34 640.734C1011.29 624.534 975.407 634.148 959.208 662.206C955.658 668.354 952.095 681.637 949.153 700.482C946.322 718.621 944.346 739.855 942.977 760.274C941.685 779.549 940.951 797.889 940.533 811.879C952.439 804.522 967.954 794.715 984.001 783.959C1001 772.564 1018.4 760.236 1032.69 748.715C1047.54 736.745 1057.27 727.017 1060.82 720.869C1077.01 692.811 1067.4 656.933 1039.34 640.734Z" fill="#856E00" stroke="black" stroke-width="28.4072"></path>
    <path d="M573.246 949.796C562.13 943.378 562.13 927.334 573.246 920.916L614.004 897.384C625.12 890.967 639.015 898.989 639.015 911.824L639.015 958.888C639.014 971.723 625.12 979.745 614.004 973.327L573.246 949.796Z" fill="black" stroke="black" stroke-width="1.23509" stroke-linejoin="round"></path>
    <rect x="622.958" y="786.527" width="634.838" height="297.658" rx="148.829" fill="#FFD200" stroke="black" stroke-width="28.4072"></rect>
    <rect x="781.668" y="772.324" width="102.513" height="326.065" fill="black"></rect>
    <rect x="968.167" y="772.324" width="102.513" height="326.065" fill="black"></rect>
    <circle cx="1160.84" cy="873.601" r="18.5264" fill="black"></circle>
  </g>
</svg>