<svg width="1820" height="2053" viewBox="0 0 1820 2053" fill="none" xmlns="http://www.w3.org/2000/svg">
<rect width="1820" height="2053" fill="white"/>
<path d="M868.5 303.519C894.18 288.692 925.82 288.692 951.5 303.519L1514.94 628.819C1540.62 643.646 1556.44 671.046 1556.44 700.699V1351.3C1556.44 1380.95 1540.62 1408.35 1514.94 1423.18L951.5 1748.48C925.82 1763.31 894.18 1763.31 868.5 1748.48L305.062 1423.18C279.382 1408.35 263.562 1380.95 263.562 1351.3V700.699C263.562 671.046 279.382 643.646 305.062 628.819L868.5 303.519Z" fill="#FFEE9E" stroke="black" stroke-width="46" stroke-linejoin="round"/>
<path d="M813.585 640.734C841.643 624.534 877.521 634.148 893.721 662.206C897.27 668.354 900.834 681.637 903.775 700.482C906.606 718.621 908.583 739.855 909.952 760.274C911.244 779.549 911.978 797.889 912.396 811.879C900.49 804.522 884.975 794.715 868.928 783.959C851.929 772.564 834.527 760.236 820.234 748.715C805.385 736.745 795.663 727.017 792.113 720.869C775.914 692.811 785.528 656.933 813.585 640.734Z" fill="#856E00" stroke="black" stroke-width="28.4072"/>
<path d="M1039.34 640.734C1011.29 624.534 975.407 634.148 959.208 662.206C955.658 668.354 952.095 681.637 949.153 700.482C946.322 718.621 944.346 739.855 942.977 760.274C941.685 779.549 940.951 797.889 940.533 811.879C952.439 804.522 967.954 794.715 984.001 783.959C1001 772.564 1018.4 760.236 1032.69 748.715C1047.54 736.745 1057.27 727.017 1060.82 720.869C1077.01 692.811 1067.4 656.933 1039.34 640.734Z" fill="#856E00" stroke="black" stroke-width="28.4072"/>
<path d="M573.246 949.796C562.13 943.378 562.13 927.334 573.246 920.916L614.004 897.384C625.12 890.967 639.015 898.989 639.015 911.824L639.015 958.888C639.014 971.723 625.12 979.745 614.004 973.327L573.246 949.796Z" fill="black" stroke="black" stroke-width="1.23509" stroke-linejoin="round"/>
<rect x="622.958" y="786.527" width="634.838" height="297.658" rx="148.829" fill="#FFD200" stroke="black" stroke-width="28.4072"/>
<rect x="781.668" y="772.324" width="102.513" height="326.065" fill="black"/>
<rect x="968.167" y="772.324" width="102.513" height="326.065" fill="black"/>
<circle cx="1160.84" cy="873.601" r="18.5264" fill="black"/>
<path d="M402.002 1275.65C402.002 1259.48 404.768 1245.43 410.301 1233.52C415.975 1221.46 424.204 1212.09 434.986 1205.43C445.767 1198.76 458.819 1195.42 474.141 1195.42C492.158 1195.42 506.345 1199.68 516.701 1208.19C527.057 1216.56 533.583 1228.05 536.278 1242.67L503.082 1246.28C501.237 1239.19 498.187 1233.66 493.931 1229.69C489.675 1225.71 483.007 1223.73 473.928 1223.73C464.99 1223.73 457.755 1225.93 452.222 1230.32C446.831 1234.72 442.859 1240.75 440.306 1248.41C437.894 1256.07 436.688 1264.94 436.688 1275.01C436.688 1291.61 439.951 1304.38 446.477 1313.32C453.003 1322.25 463.359 1326.72 477.546 1326.72C489.321 1326.72 499.251 1324.24 507.338 1319.27V1294.38H477.758V1267.78H538.619V1334.17C530.533 1340.98 520.957 1346.16 509.891 1349.7C498.826 1353.25 487.618 1355.02 476.269 1355.02C452.577 1355.02 434.276 1348.14 421.366 1334.38C408.457 1320.48 402.002 1300.9 402.002 1275.65ZM562.493 1240.11H593.349V1254.8C601.435 1243.73 611.933 1238.2 624.843 1238.2C626.829 1238.2 628.674 1238.27 630.376 1238.41C632.22 1238.55 633.923 1238.84 635.483 1239.26L631.866 1266.29C630.021 1266 628.248 1265.79 626.546 1265.65C624.843 1265.36 622.999 1265.22 621.013 1265.22C617.608 1265.22 614.345 1265.72 611.224 1266.71C608.245 1267.56 605.407 1269.05 602.712 1271.18C600.016 1273.31 597.888 1275.93 596.328 1279.06C594.767 1282.18 593.987 1285.86 593.987 1290.12V1351.19H562.493V1240.11ZM650.402 1240.11H681.897V1351.19H650.402V1240.11ZM650.19 1198.83H682.11V1224.15H650.19V1198.83ZM715.642 1311.61V1264.8H697.98V1240.11H715.642V1210.53H747.349V1240.11H773.524V1264.8H747.349V1312.89C747.349 1317.57 748.413 1321.26 750.541 1323.96C752.669 1326.51 756.003 1327.79 760.543 1327.79C762.955 1327.79 765.154 1327.64 767.14 1327.36C769.268 1326.94 771.254 1326.44 773.098 1325.87L777.354 1349.28C773.382 1350.56 769.41 1351.55 765.437 1352.26C761.465 1352.97 756.996 1353.32 752.031 1353.32C738.27 1353.32 728.765 1349.78 723.516 1342.68C718.267 1335.59 715.642 1325.23 715.642 1311.61ZM801.053 1311.61V1264.8H783.391V1240.11H801.053V1210.53H832.76V1240.11H858.935V1264.8H832.76V1312.89C832.76 1317.57 833.824 1321.26 835.952 1323.96C838.08 1326.51 841.414 1327.79 845.954 1327.79C848.366 1327.79 850.565 1327.64 852.551 1327.36C854.679 1326.94 856.665 1326.44 858.509 1325.87L862.765 1349.28C858.793 1350.56 854.821 1351.55 850.848 1352.26C846.876 1352.97 842.407 1353.32 837.442 1353.32C823.681 1353.32 814.176 1349.78 808.927 1342.68C803.678 1335.59 801.053 1325.23 801.053 1311.61ZM883.836 1367.58C886.673 1368.29 889.014 1368.79 890.858 1369.07C892.844 1369.35 894.759 1369.5 896.604 1369.5C900.718 1369.5 903.91 1368.22 906.18 1365.66C908.591 1363.25 910.932 1358.93 913.202 1352.68L916.394 1343.96L870.216 1240.11H904.477L930.864 1311.61L954.698 1240.11H987.682L941.292 1355.66C937.603 1365.03 933.986 1372.55 930.439 1378.22C927.034 1384.04 923.062 1388.22 918.522 1390.78C914.124 1393.47 908.52 1394.82 901.711 1394.82C897.739 1394.82 893.837 1394.53 890.007 1393.97C886.176 1393.4 882.417 1392.41 878.728 1390.99L883.836 1367.58ZM1050.49 1199.26H1110.93C1123.98 1199.26 1134.41 1200.89 1142.21 1204.15C1150.01 1207.27 1155.61 1211.74 1159.02 1217.56C1162.57 1223.37 1164.34 1230.25 1164.34 1238.2C1164.34 1245.29 1162.71 1251.6 1159.44 1257.14C1156.32 1262.53 1151.22 1267.07 1144.12 1270.76C1153.06 1274.44 1159.37 1279.41 1163.06 1285.65C1166.89 1291.89 1168.81 1298.99 1168.81 1306.93C1168.81 1320.27 1164.27 1330.98 1155.19 1339.06C1146.11 1347.15 1131.71 1351.19 1111.99 1351.19H1050.49V1199.26ZM1136.46 1305.23C1136.46 1298.14 1134.41 1292.89 1130.29 1289.48C1126.18 1285.94 1119.37 1284.16 1109.86 1284.16H1081.77V1326.08H1109.22C1119.58 1326.08 1126.67 1324.31 1130.5 1320.76C1134.48 1317.08 1136.46 1311.9 1136.46 1305.23ZM1132.21 1242.03C1132.21 1235.79 1130.22 1231.32 1126.25 1228.62C1122.42 1225.78 1115.89 1224.37 1106.67 1224.37H1081.77V1260.33H1108.37C1116.74 1260.33 1122.77 1258.84 1126.46 1255.86C1130.29 1252.74 1132.21 1248.13 1132.21 1242.03ZM1185.64 1296.72C1185.64 1283.95 1187.91 1273.1 1192.45 1264.16C1196.99 1255.22 1203.38 1248.41 1211.6 1243.73C1219.83 1239.05 1229.48 1236.71 1240.54 1236.71C1257.71 1236.71 1270.62 1241.74 1279.27 1251.82C1288.07 1261.89 1292.47 1275.37 1292.47 1292.25V1302.68H1216.29C1217.56 1322.11 1225.58 1331.83 1240.33 1331.83C1247 1331.83 1251.97 1330.55 1255.23 1328C1258.49 1325.45 1260.69 1321.9 1261.82 1317.36H1291.4C1289.28 1329.28 1284.03 1338.5 1275.66 1345.02C1267.29 1351.41 1255.65 1354.6 1240.76 1354.6C1223.02 1354.6 1209.41 1349.56 1199.9 1339.49C1190.4 1329.42 1185.64 1315.16 1185.64 1296.72ZM1262.68 1284.59C1262.25 1276.22 1260.48 1269.9 1257.36 1265.65C1254.38 1261.25 1248.77 1259.05 1240.54 1259.05C1232.46 1259.05 1226.64 1261.32 1223.1 1265.86C1219.55 1270.26 1217.35 1276.5 1216.5 1284.59H1262.68ZM1310.54 1296.72C1310.54 1283.95 1312.81 1273.1 1317.35 1264.16C1321.89 1255.22 1328.27 1248.41 1336.5 1243.73C1344.73 1239.05 1354.37 1236.71 1365.44 1236.71C1382.61 1236.71 1395.52 1241.74 1404.17 1251.82C1412.97 1261.89 1417.36 1275.37 1417.36 1292.25V1302.68H1341.18C1342.46 1322.11 1350.47 1331.83 1365.23 1331.83C1371.9 1331.83 1376.86 1330.55 1380.12 1328C1383.39 1325.45 1385.59 1321.9 1386.72 1317.36H1416.3C1414.17 1329.28 1408.92 1338.5 1400.55 1345.02C1392.18 1351.41 1380.55 1354.6 1365.65 1354.6C1347.92 1354.6 1334.3 1349.56 1324.8 1339.49C1315.29 1329.42 1310.54 1315.16 1310.54 1296.72ZM1387.57 1284.59C1387.15 1276.22 1385.37 1269.9 1382.25 1265.65C1379.27 1261.25 1373.67 1259.05 1365.44 1259.05C1357.35 1259.05 1351.54 1261.32 1347.99 1265.86C1344.44 1270.26 1342.25 1276.5 1341.39 1284.59H1387.57Z" fill="black"/>
</svg>
